<?xml version="1.0" encoding="utf-8"?>
<!-- Generator: Adobe Illustrator 16.0.0, SVG Export Plug-In . SVG Version: 6.00 Build 0)  -->
<!DOCTYPE svg PUBLIC "-//W3C//DTD SVG 1.1//EN" "http://www.w3.org/Graphics/SVG/1.1/DTD/svg11.dtd">
<svg version="1.1" id="Ebene_1" xmlns="http://www.w3.org/2000/svg" xmlns:xlink="http://www.w3.org/1999/xlink" x="0px" y="0px"
	 width="1632px" height="482px" viewBox="0 0 1632 482" enable-background="new 0 0 1632 482" xml:space="preserve">
<path fill="#816CFF" d="M399.321,205.96c7.26-9.775,16.11-23.05,20.124-39.065c6.091-24.261-5.015-43.794-28.982-50.977
	c-7.682-2.303-16.067-3.422-25.631-3.422c-1.637,0-3.278,0.031-4.924,0.091c-17.988,0.651-37.12,4.167-60.212,11.068
	c-3.232,0.967-6.447,1.982-9.671,3.013c-0.641-2.942-1.292-5.86-1.985-8.77c-4.083-17.089-10.227-39.403-21.604-60.433
	c-3.993-7.381-10.508-18.474-20.938-26.762C237.654,24.48,229.177,21,220.301,21h-0.474c-9.739,0-18.595,4.127-27.075,11.565
	c-7.167,6.291-13.25,14.521-19.144,25.55c-7.876,14.738-14.065,31.618-19.48,52.947c-1.324,5.215-2.536,10.558-3.703,15.719
	c-1.089-0.333-2.178-0.646-3.267-0.981c-7.306-2.244-14.859-4.552-22.483-6.504c-22.225-5.686-40.188-7.668-57.398-6.444
	c-11.092,0.797-19.873,3.146-27.624,7.385c-10.224,5.58-16.699,13.968-19.246,24.92c-0.111,0.481-0.961,0.957-1.097,1.431
	l-1.31,2.18v11.38l1.004,1.108c0.298,1.128,0.931,2.263,1.208,3.397c0.665,2.741,1.534,5.575,2.526,8.471
	c5.33,15.572,14.499,28.19,22.68,38.482c9.496,11.944,20.624,23.553,34.624,36.191c-0.853,0.771-1.678,1.544-2.521,2.322
	c-17.696,16.331-30.079,30.164-40.174,44.851c-6.552,9.533-15.035,22.344-17.879,37.736L18,333.773v14.329l1.526,1.362
	c2.821,13.893,12.029,23.68,26.694,29.112c8.175,3.025,17.332,4.435,28.432,4.435c1.307,0,2.704-0.02,4.014-0.054
	c17.161-0.445,34.918-3.493,57.476-9.885c4.789-1.359,9.6-2.844,14.271-4.31c1,4.484,2.022,8.957,3.132,13.406
	c5.955,23.888,12.492,41.534,21.185,57.203c5.686,10.271,11.583,17.837,18.557,23.812c8.264,7.07,16.866,10.589,26.293,10.765
	l0.709,0.006c9.377,0,17.959-3.342,26.241-10.215c6.819-5.658,12.622-12.866,18.266-22.688
	c8.658-15.101,15.156-31.981,21.068-54.727c1.503-5.787,2.857-11.677,4.163-17.397c20.601,6.693,44.606,13.158,70.188,14.08
	c1.66,0.061,3.317,0.095,4.971,0.095c10.85,0,20.2-1.484,28.582-4.541c20.83-7.591,30.666-25.114,26.312-46.875
	c-2.952-14.796-10.24-26.847-16.262-35.696c-13.327-19.576-29.685-35.753-43.432-48.189
	C376.685,233.055,389.141,219.658,399.321,205.96z M386.187,350.544c-6.362,3.145-13.707,3.653-20.048,3.734l-1.593,0.01
	c-11.57,0-23.662-1.579-35.937-4.695c-8.977-2.281-18.093-5.011-26.91-7.65c-2.059-0.618-4.119-1.233-6.169-1.842
	c0.255-2.342,0.511-4.673,0.767-7.002c1.36-12.396,2.768-25.212,3.866-37.812c0.063-0.719,0.165-0.976,0.162-0.976
	c0.019-0.025,0.232-0.311,1.126-0.938c10.447-7.344,20.99-15.007,31.184-22.416l5.521-4.004
	c12.84,11.351,27.983,25.949,40.347,43.209c5.538,7.729,10.946,16.237,13.012,26.1c0.509,2.401,0.678,4.786,0.491,6.901
	C391.802,345.491,390.949,348.188,386.187,350.544z M301,257.648v-19.705l13.226,9.848L301,257.648z M337.967,228.831
	c-0.083-0.063-0.167-0.124-0.251-0.185l-1.062-0.777c-12.105-8.843-24.21-17.687-36.391-26.448
	c-1.445-13.16-2.962-26.315-4.481-39.468l-0.75-6.514c20.261-6.829,37.364-10.979,53.483-12.998c6.629-0.83,11.69-1.2,16.41-1.2
	c5.739,0,10.831,0.577,15.57,1.767c5.382,1.35,8.908,3.41,10.478,6.121c1.585,2.733,1.613,6.865,0.086,12.273
	c-3.108,11-9.626,20.428-16.202,28.971C365.18,202.932,353.682,214.937,337.967,228.831z M234.178,434.923l-1.957,2.692
	c-0.528,0.734-1.522,1.65-2.672,2.711c-3.403,3.133-6.535,4.724-9.307,4.724c-2.75,0-5.854-1.569-9.223-4.66
	c-6.804-6.245-11.299-14.515-14.8-21.779c-9.775-20.291-15.134-42.273-18.698-59.499c4.892-1.942,9.946-3.954,14.876-6.116
	c5.513-2.42,10.985-4.934,16.457-7.444c3.778-1.735,7.557-3.471,11.358-5.178c13.36,5.771,26.693,11.614,40.021,17.455l2.729,1.195
	c-0.89,4.23-1.788,8.47-2.804,12.678c-4.012,16.579-9.444,35.879-19.325,53.352C238.978,428.346,236.646,431.54,234.178,434.923z
	 M228.697,54.528c6.198,5.289,10.379,12.406,13.651,18.666c7.445,14.261,13.096,30.564,18.322,52.864
	c0.813,3.463,1.55,6.943,2.289,10.472l-4.208,1.843c-12.845,5.628-25.69,11.257-38.525,16.817
	c-14.068-6.074-28.107-12.215-42.141-18.356l-0.578-0.252c5.071-24.194,11.16-47.583,23.817-68.777
	c2.896-4.849,6.618-9.461,10.758-13.335C217.876,49.05,222.442,49.181,228.697,54.528z M273.383,247.854l-0.227,7.077
	c-0.241,7.654-0.483,15.308-0.803,22.987c-16.359,10.625-33.848,20.743-52.026,30.098c-17.294-8.799-34.873-18.904-52.317-30.076
	c-0.943-20.648-0.912-40.898,0.092-60.24c16.717-10.846,34.237-20.958,52.144-30.098c17.842,9.091,35.351,19.196,52.112,30.074
	c0.318,7.822,0.565,15.652,0.811,23.485L273.383,247.854z M252.524,172.173l15.312-6.634l1.886,16.539L252.524,172.173z
	 M172.667,165.553l15.305,6.622l-17.205,9.901L172.667,165.553z M188.124,323.506l-15.435,6.706l-1.916-16.688L188.124,323.506z
	 M267.834,330.039l-15.308-6.608l17.188-9.911L267.834,330.039z M54.358,145.039c6.29-3.12,13.533-3.629,19.791-3.717l1.823-0.013
	c11.599,0,23.786,1.605,36.216,4.767c8.831,2.253,17.804,4.933,26.481,7.526c2.169,0.648,4.337,1.295,6.5,1.935
	c-0.063,0.458-0.124,0.915-0.187,1.371c-0.846,6.242-1.721,12.694-2.437,19.089c-0.598,5.353-1.076,10.719-1.554,16.083
	c-0.277,3.113-0.554,6.225-0.854,9.328c-11.598,8.395-23.248,16.739-35.088,25.22l-2.788,1.998
	c-9.992-8.825-18.649-17.35-26.34-25.933c-7.299-8.144-16.485-19.113-22.769-31.75c-3.122-6.283-4.605-11.211-4.811-15.979
	C48.134,150.13,49.874,147.256,54.358,145.039z M126.759,247.798L140,237.936v19.712L126.759,247.798z M95.346,273.276
	c2.4-2.244,4.85-4.44,7.332-6.656l3.151,2.313c11.463,8.419,22.929,16.839,34.341,25.299c1.695,14.094,3.309,28.197,4.922,42.3
	l0.438,3.825c-3.625,1.192-7.27,2.382-10.938,3.49c-20.111,6.068-36.621,9.345-51.954,10.302c-2.525,0.157-4.81,0.235-6.985,0.235
	c-6.521,0-12.145-0.719-17.163-2.184l-0.725-0.207c-8.335-2.79-10.745-7.008-8.896-15.56c1.466-6.766,4.613-13.563,10.209-22.039
	C70.113,297.672,84.254,283.639,95.346,273.276z"/>
<path fill="#816CFF" d="M220.283,215.133c-17.999,0-32.698,14.602-32.769,32.554c-0.033,8.729,3.344,17.213,9.51,23.404
	c6.185,6.214,14.424,9.909,23.199,9.909h0.016c8.767,0,17.006-3.689,23.202-9.896c6.173-6.186,9.563-14.525,9.546-23.247
	C252.939,229.972,238.334,215.219,220.283,215.133z M220.239,271.626L220.239,271.626L220.239,271.626L220.239,271.626z"/>
<path fill="#FFFFFF" d="M554.442,172.642c-20.333,0-36.136,6.016-46.967,17.879c-10.795,11.821-16.268,29.197-16.268,51.645
	c0,22.653,6.13,40.092,18.22,51.838c12.077,11.736,29.508,17.687,51.806,17.687c10.121,0,20.051-1.026,29.467-3.044
	c4.076-0.74,7.412-2.762,9.913-6.007c2.477-3.204,3.731-6.963,3.731-11.168c0-3.716-1.539-6.697-4.578-8.862
	c-2.988-2.112-6.33-2.702-9.777-1.745c-9.035,2.467-17.357,3.716-24.731,3.716c-11.641,0-20.567-2.461-26.53-7.309
	c-5.92-4.817-9.49-12.707-10.64-23.634c-0.03-0.132-0.044-0.897-0.06-0.96c0.063-0.006,0.146-0.678,0.252-0.678h68.672
	c4.415,0,8.33-0.826,11.631-3.764c3.38-3.001,5-6.479,4.817-10.967C612.374,194.165,592.538,172.642,554.442,172.642z
	 M578.242,227.828c0,0.226-0.031-0.277-0.025-0.258c-0.041,0.016-0.155-0.57-0.382-0.57h-49.303c-0.203,0-0.315,0-0.35,0
	c-0.004,0-0.008,0-0.009,0c-0.017,0-0.048,0.49-0.055,0.399c1.125-10.152,3.896-17.279,8.238-21.776
	c4.274-4.429,10.528-6.524,18.589-6.524C569.978,199.1,577.599,208.616,578.242,227.828z"/>
<path fill="#FFFFFF" d="M671.156,117h-6.54c-4.28,0-8.383,1.749-11.534,4.896c-3.149,3.151-5.083,7.07-5.083,11.351v159.981
	c0,4.287,1.933,8.467,5.083,11.611c3.148,3.151,7.251,5.16,11.534,5.16h6.54c4.279,0,7.496-2.009,10.648-5.16
	c3.149-3.15,4.196-7.327,4.196-11.611V133.247c0-4.275-1.047-8.193-4.197-11.351C678.649,118.749,675.432,117,671.156,117z"/>
<path fill="#FFFFFF" d="M784.353,172.642c-20.333,0-36.136,6.016-46.967,17.879c-10.796,11.821-16.269,29.197-16.269,51.645
	c0,22.653,6.13,40.092,18.22,51.838c12.077,11.736,29.508,17.687,51.806,17.687c10.121,0,20.051-1.026,29.467-3.044
	c4.077-0.74,7.413-2.762,9.914-6.007c2.476-3.204,3.731-6.963,3.731-11.168c0-3.716-1.539-6.697-4.579-8.862
	c-2.987-2.112-6.331-2.702-9.776-1.745c-9.035,2.467-17.357,3.716-24.732,3.716c-11.641,0-20.567-2.461-26.529-7.309
	c-5.92-4.817-9.49-12.707-10.641-23.634c-0.029-0.132-0.044-0.897-0.06-0.96c0.063-0.006,0.146-0.678,0.253-0.678h68.672
	c4.416,0,8.33-0.826,11.632-3.764c3.38-3.001,5.001-6.479,4.817-10.967C842.284,194.165,822.448,172.642,784.353,172.642z
	 M808.152,227.828c0,0.226-0.031-0.277-0.025-0.258c-0.041,0.016-0.155-0.57-0.381-0.57h-49.304c-0.202,0-0.315,0-0.35,0
	c-0.005,0-0.008,0-0.01,0c-0.017,0-0.049,0.49-0.055,0.399c1.125-10.152,3.896-17.279,8.237-21.776
	c4.274-4.429,10.529-6.524,18.589-6.524C799.888,199.1,807.509,208.616,808.152,227.828z"/>
<path fill="#FFFFFF" d="M1005.96,172.642c-13.331,0-25.473,6.369-36.011,18.824c-3.483-6.695-7.537-11.503-12.072-14.307
	c-4.852-2.997-11.272-4.517-19.08-4.517c-12.038,0-23.037,5.514-32.73,16.397c-0.471-3.633-2.068-6.867-4.764-9.481
	c-3.063-2.972-6.782-4.558-11.053-4.558h-3.524c-4.287,0-8.535,1.683-11.605,4.843c-3.054,3.151-5.12,6.99-5.12,11.259v102.126
	c0,4.274,2.066,8.448,5.12,11.596c3.066,3.16,7.315,5.176,11.605,5.176h5.033c4.28,0,8.192-2.009,11.345-5.16
	c3.15-3.15,4.896-7.331,4.896-11.611v-75.461c0-3.543,1.881-7.208,5.873-10.894c4.035-3.724,7.995-5.611,11.918-5.611
	c6.163,0,9.431,1.684,11.571,5.147c2.263,3.671,2.638,11.47,2.638,23.18v63.64c0,4.274,2.281,8.448,5.338,11.596
	c3.066,3.16,7.53,5.176,11.82,5.176h4.28c4.277,0,8.854-2.009,12.007-5.16c3.147-3.147,5.555-7.327,5.555-11.611v-75.461
	c0-3.542,1.218-7.205,5.213-10.893c4.035-3.725,7.664-5.613,11.588-5.613c6.156,0,10.004,1.64,12.063,5.014
	c2.181,3.59,3.137,11.434,3.137,23.313v63.64c0,4.29,1.545,8.471,4.693,11.611c3.147,3.151,6.861,5.16,11.145,5.16h4.277
	c4.293,0,7.619-2.016,10.682-5.176c3.057-3.147,4.203-7.321,4.203-11.596v-68.67c0-18.735-2.807-32.194-9.135-40.002
	C1030.447,176.651,1020.316,172.642,1005.96,172.642z"/>
<path fill="#FFFFFF" d="M1135.252,172.642c-20.332,0-36.136,6.016-46.969,17.881c-10.795,11.823-16.269,29.199-16.269,51.643
	c0,22.653,6.132,40.092,18.224,51.838c12.075,11.736,29.505,17.687,51.805,17.687c10.12,0,20.049-1.026,29.467-3.044
	c4.08-0.74,7.416-2.762,9.914-6.007c2.476-3.207,3.73-6.963,3.73-11.168c0-3.716-1.541-6.697-4.578-8.862
	c-2.987-2.112-6.32-2.708-9.775-1.745c-9.038,2.467-17.357,3.716-24.731,3.716c-11.643,0-20.571-2.461-26.533-7.309
	c-5.922-4.817-9.49-12.707-10.636-23.634c-0.031-0.132-0.044-0.897-0.06-0.96c0.063-0.006,0.145-0.678,0.248-0.678h68.676
	c4.415,0,8.328-0.826,11.63-3.764c3.383-3.002,5.002-6.481,4.816-10.967C1193.182,194.165,1173.346,172.642,1135.252,172.642z
	 M1159.052,227.828c0,0.228-0.032-0.277-0.025-0.258c-0.041,0.016-0.153-0.57-0.38-0.57h-49.307c-0.201,0-0.311,0-0.348,0
	c-0.004,0-0.007,0-0.01,0c-0.016,0-0.047,0.49-0.054,0.397c1.12-10.152,3.892-17.277,8.234-21.774
	c4.277-4.429,10.532-6.526,18.591-6.526C1150.785,199.098,1158.405,208.616,1159.052,227.828z"/>
<path fill="#FFFFFF" d="M1296.49,172.642c-14.815,0-28.021,5.766-39.242,17.103c-0.424-3.871-2.027-7.297-4.777-10.043
	c-3.063-3.069-6.872-4.702-11.322-4.702h-3.27c-4.28,0-7.516,1.677-10.666,4.827c-3.147,3.145-4.213,6.99-4.213,11.275v102.126
	c0,4.29,1.065,8.471,4.213,11.611c3.148,3.151,6.383,5.16,10.666,5.16h5.033c4.277,0,7.616-2.009,10.771-5.16
	c3.147-3.147,4.317-7.327,4.317-11.611v-65.4c0-6.234,3.232-12.198,8.762-17.729c5.529-5.53,11.794-8.333,18.195-8.333
	c7.796,0,13.868,2.1,16.802,6.239c3.061,4.316,5.241,12.678,5.241,24.855v60.369c0,4.274,1.023,8.448,4.08,11.596
	c3.064,3.16,6.272,5.176,10.563,5.176h4.28c4.277,0,8.11-2.009,11.265-5.16c3.147-3.147,4.813-7.327,4.813-11.611v-62.885
	c0-20.398-3.699-35.251-10.859-44.149C1323.891,177.202,1312.188,172.642,1296.49,172.642z"/>
<path fill="#FFFFFF" d="M1456.976,207c3.784,0,7.086-0.984,9.813-3.716c2.732-2.733,4.12-5.836,4.12-9.615
	c0-3.783-1.394-6.043-4.14-8.705c-2.73-2.633-6.025-2.965-9.794-2.965h-28.674c-0.438,0,0.117-1,0.113-1.001
	c0,0,0.585-1.031,0.585-1.467V148.34c0-4.275-2.276-7.741-5.427-10.896c-3.154-3.149-7.598-4.444-11.875-4.444h-5.03
	c-4.287,0-8.507,1.299-11.575,4.461c-3.057,3.15-5.093,6.611-5.093,10.878v31.192c0,0.38,0.41,1.445,0.392,1.467
	c-0.025,0.02,0.306,1.001-0.073,1.001h-12.076c-3.778,0-7.039,0.438-9.69,3.086c-2.648,2.652-3.992,5.459-3.992,9.238
	c0,3.771,1.337,6.438,3.974,9.166c2.648,2.746,5.915,3.511,9.709,3.511h12.076c0.43,0,0.11,0.481,0.123,0.481
	c0.013,0.027-0.441,0.531-0.441,0.727v54.082c0,18.286,3.938,31.225,10.734,38.454c6.823,7.262,18.971,10.946,35.623,10.946
	c3.715,0,9.471-0.342,16.877-1.014c3.944-0.38,7.378-2.222,10.073-5.479c2.665-3.216,4.047-6.906,4.047-10.961
	c0-3.71-1.476-6.685-4.413-8.844c-2.4-1.757-5.163-2.651-8.229-2.651c-0.546,0-1.102,0.028-1.776,0.101
	c-1.924,0.319-4.875,0.482-8.792,0.482c-6.804,0-10.598-1.39-12.615-4.129c-1.462-1.98-2.528-7.09-2.528-20.176v-50.812
	c0-0.202-0.647-0.306-0.653-0.306c0,0-0.339-0.401-0.345-0.401c0.006-0.001-0.184-0.501,0.3-0.501H1456.976z"/>
<path fill="#FFFFFF" d="M1595.029,241.987c-7.412-6.8-20.624-12.028-40.359-15.979c-6.56-1.438-11.213-3.42-13.834-5.89
	c-2.538-2.385-3.771-5.292-3.771-8.891c0-2.713,0-10.971,21.031-10.971c10.212,0,20.066,1.169,29.273,3.467
	c3.656,0.967,7.039,0.311,9.938-1.913c2.921-2.234,4.402-5.244,4.402-8.947c0-4.205-1.255-7.963-3.731-11.17
	c-2.5-3.243-5.836-5.266-9.906-6.006c-10.955-2.021-22.144-3.045-33.246-3.045c-17.885,0-31.623,3.537-40.837,10.513
	c-9.354,7.078-14.097,17.031-14.097,29.581c0,11.161,3.945,20.365,11.728,27.355c7.636,6.868,20.533,12.327,38.276,16.206
	c7.438,1.945,12.6,4.117,15.33,6.455c2.586,2.219,3.841,5.196,3.841,9.098c0,2.962,0,11.979-21.283,11.979
	c-9.524,0-19.792-1.504-30.513-4.469c-3.451-0.957-6.753-0.465-9.722,1.452c-3.078,1.98-4.638,4.89-4.638,8.646
	c0,4.368,1.293,8.291,3.847,11.661c2.57,3.401,5.932,5.589,9.977,6.505c11.818,2.699,23.533,4.067,34.821,4.067
	c17.545,0,31.155-3.489,40.45-10.378c9.446-6.995,14.235-16.908,14.235-29.464C1606.242,258.866,1602.47,248.819,1595.029,241.987z"
	/>
</svg>
