<?xml version="1.0" encoding="utf-8"?>
<!-- Generator: Adobe Illustrator 16.0.0, SVG Export Plug-In . SVG Version: 6.00 Build 0)  -->
<!DOCTYPE svg PUBLIC "-//W3C//DTD SVG 1.1//EN" "http://www.w3.org/Graphics/SVG/1.1/DTD/svg11.dtd">
<svg version="1.1" id="Ebene_1" xmlns="http://www.w3.org/2000/svg" xmlns:xlink="http://www.w3.org/1999/xlink" x="0px" y="0px"
	 width="19.978px" height="25.9px" viewBox="0 0 19.978 25.9" enable-background="new 0 0 19.978 25.9" xml:space="preserve">
<g>
	<path fill-rule="evenodd" clip-rule="evenodd" fill="#816CFF" d="M27.697,6.148c0.096,0.076,0.199,0.145,0.285,0.23
		c4.097,4.093,8.191,8.188,12.286,12.284c0.051,0.05,0.104,0.099,0.146,0.157c0.19,0.267,0.028,0.623-0.298,0.654
		c-0.071,0.007-0.144,0.004-0.214,0.004c-1.575,0-3.149,0-4.725,0c-0.077,0-0.155,0-0.27,0c0.034,0.082,0.057,0.146,0.085,0.206
		c0.688,1.493,1.378,2.985,2.066,4.477c0.187,0.405,0.115,0.592-0.289,0.766c-0.891,0.381-1.78,0.761-2.67,1.143
		c-0.053,0.022-0.103,0.052-0.153,0.079c-0.078,0-0.156,0-0.234,0c-0.106-0.125-0.247-0.232-0.314-0.375
		c-0.697-1.488-1.383-2.982-2.072-4.474c-0.028-0.061-0.061-0.119-0.098-0.19c-0.048,0.053-0.084,0.09-0.116,0.13
		c-0.605,0.74-1.211,1.481-1.816,2.221c-0.457,0.559-0.914,1.118-1.373,1.676c-0.128,0.156-0.29,0.222-0.485,0.15
		c-0.186-0.069-0.268-0.217-0.276-0.409c-0.002-0.039-0.001-0.078-0.001-0.117c0-6.019,0.001-12.038-0.003-18.056
		c0-0.252,0.072-0.443,0.306-0.555C27.541,6.148,27.619,6.148,27.697,6.148z"/>
</g>
<g>
	<g>
		<path fill-rule="evenodd" clip-rule="evenodd" fill="#816CFF" d="M9.271,6.971c0,1.546-0.001,3.091,0.001,4.636
			c0.001,0.354,0.015,0.709,0.032,1.063c0.012,0.27,0.23,0.476,0.501,0.496c0.245,0.018,0.524-0.177,0.552-0.428
			c0.041-0.394,0.063-0.791,0.067-1.188c0.012-1.158,0.005-2.316,0.009-3.473c0.003-0.265,0.01-0.529,0.022-0.794
			c0.042-0.809,0.886-1.31,1.609-0.943c0.362,0.182,0.604,0.467,0.615,0.898c0.011,0.383,0.02,0.765,0.022,1.147
			c0.012,1.271,0.016,2.542,0.027,3.813c0.001,0.179,0.021,0.359,0.051,0.535c0.045,0.251,0.265,0.425,0.521,0.429
			c0.258,0.003,0.502-0.18,0.531-0.435c0.036-0.313,0.055-0.63,0.059-0.945c0.016-1.069,0.016-2.137,0.032-3.205
			c0.003-0.198,0.025-0.417,0.11-0.589c0.345-0.703,1.322-0.813,1.856-0.225c0.179,0.195,0.276,0.407,0.276,0.694
			c0,1.285,0.029,2.57,0.052,3.855c0.002,0.146,0.03,0.291,0.043,0.437c0.026,0.291,0.303,0.392,0.503,0.41
			c0.229,0.02,0.496-0.162,0.531-0.38c0.044-0.265,0.07-0.534,0.074-0.802c0.013-0.723,0.008-1.446,0.013-2.168
			c0.002-0.266,0.027-0.521,0.171-0.762c0.359-0.602,1.418-0.645,1.825-0.12c0.163,0.208,0.257,0.409,0.257,0.687
			c-0.006,3.176,0.006,6.352,0.008,9.526c0,0.417-0.002,0.834-0.043,1.247c-0.086,0.869-0.389,1.673-0.845,2.412
			c-1.009,1.641-2.462,2.672-4.363,3c-1.328,0.229-2.639,0.064-3.898-0.422c-1.022-0.395-1.92-0.988-2.694-1.763
			c-2.293-2.292-4.588-4.583-6.875-6.879c-0.265-0.267-0.503-0.563-0.749-0.85c-0.436-0.5-0.008-1.463,0.674-1.529
			c0.378-0.038,0.729,0.003,1.074,0.172c1.197,0.587,2.401,1.167,3.604,1.747c0.225,0.108,0.452,0.212,0.681,0.312
			c0.283,0.122,0.652-0.08,0.682-0.389c0.031-0.314,0.042-0.632,0.043-0.947c0.011-3.03,0.015-6.06,0.021-9.088
			c0.003-1.314,0.009-2.628,0.019-3.941C6.976,1.961,7.006,1.7,6.992,1.442C6.969,0.921,7.466,0.474,7.976,0.437
			c0.598-0.042,0.95,0.283,1.216,0.726c0.023,0.04,0.017,0.101,0.017,0.152C9.208,3.2,9.25,6.971,9.271,6.971z"/>
	</g>
</g>
</svg>
