<?xml version="1.0" encoding="utf-8"?>
<!-- Generator: Adobe Illustrator 16.0.0, SVG Export Plug-In . SVG Version: 6.00 Build 0)  -->
<!DOCTYPE svg PUBLIC "-//W3C//DTD SVG 1.1//EN" "http://www.w3.org/Graphics/SVG/1.1/DTD/svg11.dtd">
<svg version="1.1" id="Ebene_1" xmlns="http://www.w3.org/2000/svg" xmlns:xlink="http://www.w3.org/1999/xlink" x="0px" y="0px"
	 width="435.65px" height="482px" viewBox="0 0 435.65 482" enable-background="new 0 0 435.65 482" xml:space="preserve">
<path fill="#816CFF" d="M401.972,295.952c-13.816-20.292-30.853-37.007-45.009-49.759c16.998-15.304,29.924-29.155,40.445-43.313
	c7.354-9.901,16.315-23.341,20.37-39.513c6.07-24.181-4.999-43.648-28.885-50.803c-7.744-2.323-16.208-3.452-25.875-3.452
	c-1.599,0-3.274,0.031-4.982,0.092c-18.274,0.662-37.72,4.238-61.201,11.256c-3.658,1.095-7.33,2.26-10.921,3.412
	c-0.72-3.323-1.466-6.699-2.261-10.027c-4.152-17.383-10.4-40.076-21.955-61.435c-4.033-7.454-10.609-18.327-21.108-26.667
	c-7.819-6.206-16.258-9.353-25.082-9.353l-0.472,0.003c-9.688,0.124-18.511,3.793-26.974,11.217
	c-7.223,6.338-13.36,14.48-19.313,25.625c-8,14.97-14.289,32.043-19.794,53.729c-1.439,5.672-2.75,11.449-4.016,17.046
	c-1.454-0.443-2.906-0.89-4.359-1.336c-7.454-2.289-15.161-4.655-22.928-6.644c-18.405-4.708-33.788-6.901-48.409-6.901
	c-3.312,0-6.626,0.117-9.852,0.349c-11.172,0.804-20.001,3.161-27.777,7.415c-10.169,5.55-16.608,13.885-19.139,24.769
	c-0.118,0.503-0.261,0.999-0.401,1.496c-0.102,0.358-0.203,0.718-0.3,1.078l-0.273,1.018l-0.002,11.345l0.265,1.003
	c0.305,1.157,0.588,2.321,0.871,3.484c0.676,2.776,1.375,5.647,2.373,8.56c5.392,15.746,14.597,28.536,22.891,38.972
	C47.743,221,59.271,233.033,73.916,246.19c-1.147,1.032-2.294,2.074-3.425,3.118c-18.006,16.618-30.61,30.684-40.869,45.606
	c-6.657,9.686-14.563,22.709-17.405,38.336l-0.72,1.009l0.002,14.025l0.777,1.301c2.77,13.9,11.6,23.696,26.27,29.13
	c8.225,3.044,17.274,4.462,28.479,4.462c1.326,0,2.655-0.019,3.985-0.054c17.428-0.452,35.427-3.552,58.365-10.05
	c5.237-1.487,10.48-3.123,15.575-4.722c1.079,4.847,2.197,9.828,3.422,14.741c6.054,24.29,12.691,42.222,21.518,58.136
	c5.744,10.374,11.688,18.007,18.711,24.025c8.249,7.054,16.816,10.567,26.19,10.739c0.235,0.004,0.468,0.006,0.701,0.006
	c9.323,0,17.872-3.332,26.135-10.188c6.864-5.695,12.712-12.965,18.409-22.882c8.791-15.332,15.391-32.48,21.402-55.606
	c1.624-6.251,3.078-12.628,4.485-18.796c0.001-0.007,0.003-0.015,0.005-0.021c21.192,6.933,45.992,13.716,72.422,14.672
	c1.726,0.063,3.417,0.094,5.025,0.094c10.959,0,20.392-1.496,28.834-4.574c20.746-7.559,30.541-25.013,26.204-46.685
	C415.435,317.088,408.063,304.902,401.972,295.952z M298,258.276v-24.175c5,4.007,10.767,8.015,16.228,12.081L298,258.276z
	 M335.657,228.144c-0.299-0.227-0.602-0.453-0.91-0.678l-0.978-0.714c-12.291-8.979-24.991-18.258-37.611-27.333
	c-1.492-13.601-3.083-27.39-4.623-40.736l-0.86-7.462c21.088-7.149,38.839-11.48,55.569-13.576
	c6.81-0.854,12.013-1.234,16.873-1.234c5.944,0,11.223,0.6,16.142,1.835c5.771,1.447,9.582,3.709,11.329,6.724
	c1.76,3.038,1.823,7.52,0.188,13.317c-3.22,11.394-9.936,21.113-16.711,29.915C364.017,201.24,352.06,213.69,335.657,228.144z
	 M291.185,341.135c0.29-2.663,0.581-5.317,0.872-7.964c1.389-12.655,2.826-25.74,3.947-38.598c0.119-1.361,0.137-1.57,1.745-2.7
	c10.659-7.493,21.42-15.313,31.826-22.876c2.089-1.519,4.184-3.04,6.284-4.565c13.276,11.702,29.076,26.845,41.951,44.818
	c5.717,7.979,11.303,16.773,13.45,27.021c0.539,2.548,0.718,5.088,0.52,7.345c-0.221,2.503-1.161,5.715-6.506,8.356
	c-6.671,3.299-14.313,3.833-20.901,3.92c-0.544,0.006-1.087,0.01-1.631,0.01c-11.898,0-24.325-1.624-36.937-4.826
	c-9.202-2.336-18.536-5.132-27.563-7.836C295.888,342.536,293.536,341.832,291.185,341.135z M230.497,437.777
	c-0.671,0.92-1.343,1.84-1.997,2.75c-0.599,0.83-1.646,1.797-2.754,2.82l-0.109,0.102c-3.668,3.376-7.095,5.088-10.187,5.088
	c-3.072,0-6.472-1.691-10.105-5.025c-7.072-6.492-11.721-15.036-15.335-22.537c-10.184-21.136-15.687-44.041-19.337-61.803
	c0.215-0.085,0.431-0.171,0.646-0.256c5.031-1.999,10.234-4.066,15.3-6.289c5.638-2.475,11.297-5.073,16.771-7.586
	c3.938-1.808,7.997-3.672,12.022-5.477c13.763,5.942,27.703,12.052,41.199,17.967l3.609,1.582
	c-0.956,4.546-1.945,9.244-3.039,13.779c-4.111,16.99-9.682,36.777-19.827,54.718C235.429,431.021,233.033,434.303,230.497,437.777z
	 M224.737,48.151c6.458,5.511,10.791,12.879,14.176,19.355c7.641,14.636,13.435,31.349,18.79,54.196
	c0.888,3.781,1.682,7.553,2.511,11.522l-5.129,2.247c-13.003,5.697-26.436,11.583-39.654,17.309
	c-14.628-6.315-29.444-12.797-43.787-19.073l-0.983-0.43c5.229-25.07,11.463-49.324,24.602-71.325
	c3.005-5.03,6.865-9.814,11.159-13.833c3.109-2.908,6.096-4.383,8.877-4.383C218.136,43.738,221.31,45.221,224.737,48.151z
	 M270.706,246.248l-0.229,7.15c-0.25,7.897-0.507,16.043-0.847,24.103c-16.989,11.058-35.177,21.58-54.095,31.297
	c-17.974-9.123-36.252-19.63-54.395-31.268c-0.999-21.479-0.965-42.537,0.098-62.632c17.37-11.291,35.588-21.807,54.211-31.291
	c18.565,9.439,36.777,19.949,54.188,31.271c0.336,8.205,0.599,16.531,0.853,24.604L270.706,246.248z M246.127,168.874l18.755-8.125
	c0.595,5.218,1.181,10.365,1.765,15.487l0.543,4.77C260.151,176.951,253.162,172.925,246.127,168.874z M166.032,160.765
	l18.748,8.111c-7.028,4.045-14.02,8.068-21.075,12.127L166.032,160.765z M184.93,323.59c-6.257,2.718-12.522,5.439-18.875,8.199
	l-2.344-20.408L184.93,323.59z M264.881,331.614c-6.313-2.725-12.539-5.412-18.754-8.096l21.058-12.141
	C266.423,318.077,265.658,324.789,264.881,331.614z M45.681,140.394c6.604-3.275,14.138-3.809,20.638-3.9
	c0.624-0.009,1.246-0.013,1.869-0.013c11.927,0,24.452,1.648,37.223,4.897c9.02,2.3,18.173,5.035,27.025,7.68
	c2.505,0.749,5.01,1.497,7.513,2.236c-0.103,0.757-0.206,1.515-0.308,2.271c-0.863,6.362-1.755,12.941-2.484,19.455
	c-0.611,5.48-1.105,11.022-1.582,16.381c-0.297,3.335-0.594,6.671-0.919,9.999c-11.871,8.595-23.609,17.002-36,25.877l-3.695,2.647
	c-10.481-9.22-19.541-18.121-27.579-27.089c-7.494-8.36-16.925-19.625-23.394-32.634c-3.253-6.545-4.8-11.701-5.015-16.717
	C38.745,146.148,40.748,142.833,45.681,140.394z M116.758,246.19L133,234.094v24.182L116.758,246.19z M87.272,271.452
	c2.635-2.466,5.305-4.852,8.119-7.361l4.186,3.075c11.524,8.462,23.433,17.207,35.102,25.86c1.744,14.483,3.427,29.192,5.057,43.435
	l0.563,4.91c-3.932,1.294-7.99,2.627-11.978,3.831c-20.599,6.217-37.522,9.572-53.258,10.557c-2.597,0.161-4.95,0.24-7.191,0.24
	c-6.754,0-12.588-0.746-17.809-2.271l-0.467-0.134c-0.099-0.027-0.199-0.054-0.307-0.089c-9.021-3.019-11.755-7.803-9.751-17.063
	c1.523-7.034,4.781-14.078,10.564-22.84C61.425,296.444,75.912,282.065,87.272,271.452z"/>
<path fill="#816CFF" d="M215.63,214h-0.142c-17.81,0-32.356,14.384-32.426,32.145c-0.033,8.634,3.309,16.977,9.41,23.104
	c6.121,6.146,14.273,9.751,22.957,9.751h0.017c8.672,0,16.825-3.629,22.957-9.771c6.109-6.121,9.464-14.298,9.447-22.925
	C247.8,228.606,233.348,214,215.63,214z M215.445,270.511L215.445,270.511L215.445,270.511L215.445,270.511z"/>
<g>
	<path fill="#FFFFFF" d="M499.552,926.121c-20.566,0-36.536,6.069-47.466,18.041c-10.907,11.945-16.437,29.534-16.437,52.279
		c0,22.942,6.192,40.59,18.403,52.451c12.203,11.857,29.843,17.87,52.431,17.87c10.288,0,20.378-1.044,29.96-3.097
		c3.998-0.725,7.271-2.707,9.728-5.893c2.438-3.158,3.675-6.862,3.675-11.01c0-3.575-1.48-6.44-4.401-8.518
		c-2.889-2.049-6.098-2.618-9.442-1.69c-9.287,2.532-17.836,3.816-25.411,3.816c-12.034,0-21.281-2.56-27.483-7.607
		c-6.171-5.018-9.893-13.246-11.061-24.458l-0.019-0.115c-0.104-0.463-0.092-0.83,0.03-0.983c0.104-0.13,0.4-0.208,0.792-0.208
		h70.091c4.416,0,8.267-1.434,11.447-4.262c3.298-2.928,4.879-6.632,4.7-10.992C558.053,948.2,538.021,926.121,499.552,926.121z
		 M524.483,981.885c0,0.943-0.355,1.115-1.054,1.115h-50.322c-0.686,0-1.041-0.168-1.053-1.071
		c1.172-10.505,4.057-18.203,8.577-22.884c4.499-4.664,11.038-7.029,19.435-7.029C515.825,952.016,523.812,961.797,524.483,981.885z
		"/>
	<path fill="#FFFFFF" d="M614.828,870h-6.675c-4.271,0-7.682,1.422-10.736,4.476c-3.013,3.015-4.417,6.444-4.417,10.796v163.289
		c0,4.353,1.445,7.911,4.416,10.88c3.107,3.11,6.519,4.56,10.736,4.56h6.675c4.221,0,7.635-1.449,10.746-4.56
		c2.979-2.979,4.427-6.538,4.427-10.88V885.271c0-4.341-1.406-7.771-4.427-10.797C622.516,871.422,619.101,870,614.828,870z"/>
	<path fill="#FFFFFF" d="M726.511,926.121c-20.566,0-36.536,6.069-47.466,18.041c-10.907,11.945-16.437,29.534-16.437,52.279
		c0,22.942,6.192,40.59,18.403,52.451c12.203,11.857,29.843,17.87,52.431,17.87c10.288,0,20.378-1.044,29.96-3.097
		c3.998-0.725,7.271-2.707,9.728-5.893c2.438-3.158,3.675-6.862,3.675-11.01c0-3.575-1.48-6.44-4.401-8.518
		c-2.889-2.049-6.099-2.618-9.442-1.69c-9.287,2.532-17.836,3.816-25.411,3.816c-12.034,0-21.281-2.56-27.483-7.607
		c-6.171-5.018-9.893-13.246-11.061-24.458l-0.019-0.115c-0.104-0.463-0.092-0.83,0.03-0.983c0.104-0.13,0.4-0.208,0.792-0.208
		h70.091c4.417,0,8.268-1.434,11.447-4.262c3.298-2.927,4.879-6.631,4.701-10.992C785.012,948.2,764.98,926.121,726.511,926.121z
		 M751.442,981.885c0,0.943-0.355,1.115-1.054,1.115h-50.322c-0.686,0-1.041-0.168-1.053-1.071
		c1.172-10.505,4.057-18.203,8.577-22.884c4.499-4.664,11.038-7.029,19.435-7.029C742.784,952.016,750.771,961.797,751.442,981.885z
		"/>
	<path fill="#FFFFFF" d="M948.85,926.121c-13.646,0-26.07,6.651-36.888,19.719c-3.596-7.172-7.807-12.285-12.523-15.205
		c-4.851-2.996-11.29-4.514-19.14-4.514c-12.661,0-24.197,6.09-34.299,18.102v-0.414c0-4.107-1.507-7.566-4.606-10.574
		c-2.981-2.889-6.364-4.234-10.646-4.234h-3.595c-4.283,0-7.798,1.477-10.747,4.513c-2.965,3.058-4.405,6.594-4.405,10.81v104.238
		c0,4.259,1.441,7.814,4.405,10.869c2.982,3.075,6.498,4.57,10.747,4.57h5.135c4.283,0,7.99-1.534,11.017-4.56
		c3.16-3.161,4.696-6.72,4.696-10.88v-77.023c0-3.824,2.125-7.723,6.315-11.588c4.236-3.914,8.493-5.897,12.652-5.897
		c6.546,0,11.021,1.87,13.3,5.558c1.703,2.765,3.732,9.171,3.732,23.995v64.956c0,4.298,1.423,7.854,4.351,10.869
		c2.982,3.075,6.479,4.57,10.69,4.57h4.364c4.304,0,7.888-1.491,10.958-4.56c3.12-3.121,4.637-6.68,4.637-10.88v-77.023
		c0-3.788,2.145-7.688,6.374-11.588c4.237-3.914,8.505-5.897,12.683-5.897c6.599,0,11.058,1.825,13.252,5.425
		c2.381,3.916,3.691,12.484,3.691,24.128v64.956c0,4.35,1.446,7.909,4.419,10.88c3.107,3.11,6.52,4.56,10.74,4.56h4.365
		c4.297,0,7.967-1.538,10.908-4.57c3.073-3.166,4.567-6.721,4.567-10.869V978.47c0-18.934-3.244-32.534-9.644-40.425
		C973.937,930.133,963.336,926.121,948.85,926.121z"/>
	<path fill="#FFFFFF" d="M1076.961,926.121c-20.565,0-36.536,6.069-47.466,18.041c-10.906,11.945-16.437,29.534-16.437,52.279
		c0,22.942,6.192,40.59,18.403,52.451c12.202,11.857,29.843,17.87,52.431,17.87c10.289,0,20.379-1.044,29.96-3.097
		c3.998-0.725,7.271-2.707,9.729-5.893c2.438-3.158,3.674-6.862,3.674-11.01c0-3.575-1.48-6.44-4.401-8.519
		c-2.889-2.047-6.1-2.616-9.442-1.689c-9.287,2.532-17.836,3.816-25.411,3.816c-12.034,0-21.28-2.56-27.482-7.607
		c-6.172-5.018-9.894-13.246-11.063-24.458l-0.019-0.115c-0.104-0.463-0.092-0.83,0.03-0.983c0.104-0.13,0.4-0.208,0.792-0.208
		h70.091c4.416,0,8.268-1.434,11.447-4.262c3.298-2.928,4.879-6.632,4.701-10.992C1135.462,948.2,1115.43,926.121,1076.961,926.121z
		 M1101.892,981.885c0,0.943-0.354,1.115-1.054,1.115h-50.321c-0.687,0-1.041-0.168-1.055-1.071
		c1.172-10.504,4.058-18.202,8.578-22.884c4.498-4.664,11.037-7.029,19.435-7.029
		C1093.233,952.016,1101.221,961.797,1101.892,981.885z"/>
	<path fill="#FFFFFF" d="M1237.68,926.121c-15.415,0-29.104,6.191-40.68,18.382v-0.181c0-4.177-1.551-7.758-4.742-10.949
		c-2.942-2.942-6.561-4.373-11.062-4.373h-3.338c-4.371,0-8.102,1.515-11.089,4.502c-3.209,3.209-4.77,6.749-4.77,10.82v104.238
		c0,4.115,1.561,7.674,4.769,10.88c3.022,3.025,6.753,4.56,11.09,4.56h5.135c4.32,0,8.181-1.576,11.163-4.56
		c3.26-3.261,4.844-6.819,4.844-10.88v-66.754c0-6.756,2.783-12.824,8.508-18.549c5.849-5.85,11.97-8.692,18.712-8.692
		c8.151,0,13.869,2.233,16.993,6.639c3.177,4.482,4.787,13.142,4.787,25.738v61.618c0,4.189,1.475,7.745,4.507,10.869
		c2.941,3.032,6.591,4.57,10.848,4.57h4.364c4.199,0,7.731-1.491,10.801-4.56c3.015-3.016,4.48-6.574,4.48-10.88v-64.186
		c0-21.11-3.5-35.719-10.7-44.659C1264.926,930.567,1253.602,926.121,1237.68,926.121z"/>
	<path fill="#FFFFFF" d="M1368.362,961h29.269c3.593,0,6.811-1.396,9.564-4.152c2.665-2.664,4.016-5.904,4.016-9.633
		c0-3.647-1.355-6.809-4.028-9.395c-2.628-2.535-5.841-3.82-9.552-3.82h-29.269c-0.635,0-1.362-0.169-1.362-1.488v-31.836
		c0-4.219-1.559-7.919-4.633-10.998c-3.108-3.104-6.793-4.678-10.95-4.678h-5.135c-4.152,0-7.79,1.578-10.812,4.689
		c-2.967,3.059-4.471,6.756-4.471,10.986v31.836c0,1.334-0.803,1.488-1.406,1.488h-12.324c-3.741,0-6.915,1.278-9.436,3.799
		c-2.58,2.579-3.888,5.739-3.888,9.393c0,3.704,1.341,7.047,3.875,9.666c2.65,2.748,5.83,4.143,9.448,4.143h12.324
		c1.406,0,1.406,0.311,1.406,0.781v55.2c0,18.788,3.349,31.483,10.236,38.811c6.839,7.279,18.824,10.971,35.623,10.971
		c3.795,0,9.362-0.337,17.027-1.032c3.848-0.369,7.14-2.173,9.784-5.363c2.62-3.165,3.949-6.792,3.949-10.779
		c0-3.569-1.434-6.432-4.262-8.509c-2.339-1.714-5.041-2.583-8.03-2.583c-0.537,0-1.091,0.028-1.714,0.093
		c-1.972,0.331-5.026,0.499-9.077,0.499c-7.18,0-11.928-1.504-14.112-4.472c-2.272-3.078-3.425-10.135-3.425-20.973v-51.862
		C1367,961.294,1367,961,1368.362,961z"/>
	<path fill="#FFFFFF" d="M1534.253,996.732c-7.375-6.767-21.142-12.204-40.899-16.158c-6.808-1.494-11.659-3.57-14.42-6.172
		c-2.726-2.559-4.05-5.68-4.05-9.54c0-7.966,7.231-11.837,22.107-11.837c10.473,0,20.584,1.199,30.04,3.561
		c3.54,0.936,6.791,0.307,9.594-1.842c2.814-2.155,4.242-5.057,4.242-8.625c0-4.143-1.236-7.846-3.674-11.009
		c-2.456-3.181-5.729-5.163-9.725-5.892c-11.139-2.057-22.516-3.098-33.815-3.098c-18.113,0-32.008,3.566-41.298,10.601
		c-9.377,7.099-14.132,17.084-14.132,29.681c0,11.203,3.955,20.438,11.756,27.445c7.709,6.933,20.775,12.453,38.8,16.399
		c7.689,2.006,13.04,4.269,15.904,6.723c2.789,2.393,4.145,5.587,4.145,9.768c0,8.656-7.315,12.864-22.363,12.864
		c-9.794,0-20.329-1.543-31.313-4.585c-3.342-0.929-6.53-0.449-9.41,1.407c-2.944,1.899-4.438,4.688-4.438,8.286
		c0,4.316,1.277,8.191,3.797,11.514c2.528,3.347,5.831,5.502,9.817,6.406c12.008,2.742,23.917,4.133,35.396,4.133
		c17.769,0,31.53-3.521,40.904-10.466c9.469-7.012,14.27-16.956,14.27-29.56C1545.489,1013.67,1541.709,1003.575,1534.253,996.732z"
		/>
</g>
</svg>
